<?xml version="1.0" encoding="utf-8"?>
<!-- Generator: Adobe Illustrator 16.0.0, SVG Export Plug-In . SVG Version: 6.00 Build 0)  -->
<svg version="1.2" baseProfile="tiny" id="레이어_1"
	 xmlns="http://www.w3.org/2000/svg" xmlns:xlink="http://www.w3.org/1999/xlink" x="0px" y="0px" width="368.229px"
	 height="73.437px" viewBox="0 0 368.229 73.437" xml:space="preserve">
<g>
	<path fill="#F5CB1E" d="M259.003,68.458c17.673,0,32-14.326,32-32s-14.327-32-32-32s-32,14.327-32,32S241.33,68.458,259.003,68.458
		"/>
	<path d="M243.816,31.5c1.91,0,3.458-1.547,3.458-3.458c0-1.908-1.548-3.458-3.458-3.458s-3.458,1.549-3.458,3.458
		C240.358,29.953,241.906,31.5,243.816,31.5"/>
	<path d="M243.816,48.332c1.91,0,3.458-1.548,3.458-3.458c0-1.909-1.548-3.458-3.458-3.458s-3.458,1.549-3.458,3.458
		C240.358,46.784,241.906,48.332,243.816,48.332"/>
	<path d="M340.729,44.282c-1.876-1.938-2.814-4.419-2.814-7.44c0-3.02,0.938-5.5,2.814-7.439c1.844-1.908,4.229-2.862,7.153-2.862
		c2.321,0,4.245,0.62,5.771,1.86c1.526,1.241,2.576,3.021,3.148,5.342h7.059c-0.668-4.165-2.449-7.503-5.342-10.015
		c-2.895-2.512-6.439-3.768-10.637-3.768c-4.737,0-8.76,1.606-12.065,4.817c-3.243,3.181-4.865,7.202-4.865,12.065
		c0,4.897,1.622,8.936,4.865,12.114c3.274,3.18,7.297,4.77,12.065,4.77c4.197,0,7.742-1.256,10.637-3.768
		c2.893-2.511,4.674-5.85,5.342-10.016h-7.059c-0.572,2.322-1.622,4.102-3.148,5.342s-3.45,1.86-5.771,1.86
		C344.958,47.144,342.573,46.19,340.729,44.282 M316.376,20.626v20.222l-17.17-20.222h-5.199v32.432h6.916V33.361l17.026,19.697
		h5.342V20.626H316.376z M260.642,26.922h5.723c2.893,0,5.341,0.955,7.345,2.862c2.003,1.845,3.004,4.149,3.004,6.915
		c0,2.798-1.001,5.167-3.004,7.106c-1.972,1.939-4.42,2.91-7.345,2.91h-5.723V26.922z M253.726,53.058h12.639
		c4.991,0,9.125-1.541,12.4-4.625c3.307-3.116,4.96-7.027,4.96-11.733c0-4.609-1.653-8.442-4.96-11.494
		c-3.308-3.052-7.44-4.579-12.4-4.579h-12.639V53.058z"/>
	<path d="M215.517,35.92c0.859,0.747,1.384,1.79,1.575,3.126h-10.307c0.73-2.831,2.528-4.247,5.392-4.247
		C213.545,34.799,214.658,35.173,215.517,35.92 M220.432,32.556c-2.131-2.131-4.818-3.197-8.063-3.197
		c-3.627,0-6.569,1.131-8.828,3.389c-2.228,2.227-3.34,5.074-3.34,8.542c0,3.435,1.129,6.282,3.388,8.542
		c2.322,2.258,5.28,3.387,8.875,3.387c2.704,0,5.05-0.652,7.039-1.955c1.988-1.305,3.284-3.054,3.889-5.25h-6.919
		c-0.731,1.146-2.021,1.717-3.865,1.717c-3.022,0-4.932-1.351-5.727-4.056h16.654c0.095-0.604,0.143-1.559,0.143-2.863
		C223.677,37.471,222.595,34.72,220.432,32.556 M179.252,31.458v-1.622h-6.633v22.856h6.633V37.997
		c1.59-1.909,3.26-2.863,5.01-2.863c1.56,0,2.769,0.478,3.627,1.431c0.859,0.955,1.288,2.339,1.288,4.152v11.976h6.633V40.143
		c0-3.371-0.923-6.043-2.768-8.016c-1.813-2.005-4.231-3.007-7.253-3.007C183.371,29.121,181.192,29.9,179.252,31.458
		 M160.022,52.692h6.633V29.836h-6.633V52.692z M160.475,24.492c0.779,0.732,1.725,1.097,2.839,1.097
		c1.113,0,2.052-0.365,2.816-1.097c0.763-0.732,1.145-1.638,1.145-2.72c0-1.113-0.382-2.044-1.145-2.792
		c-0.764-0.747-1.703-1.121-2.816-1.121c-1.114,0-2.06,0.374-2.839,1.121c-0.78,0.748-1.169,1.679-1.169,2.792
		C159.306,22.854,159.695,23.76,160.475,24.492 M155.345,29.836h-20.661v5.487h11.261l-11.548,14.267v3.102h20.948v-5.486h-11.166
		l11.166-13.84V29.836z M113.736,45.726c-1.114-1.271-1.67-2.751-1.67-4.437c0-1.719,0.556-3.213,1.67-4.486
		c1.113-1.241,2.529-1.86,4.247-1.86c2.29,0,4.087,0.891,5.392,2.671v7.302c-1.336,1.75-3.134,2.625-5.392,2.625
		C116.265,47.541,114.849,46.936,113.736,45.726 M123.375,29.836v1.336c-1.878-1.208-4.04-1.813-6.49-1.813
		c-3.149,0-5.838,1.162-8.064,3.483c-2.227,2.26-3.34,5.075-3.34,8.447c0,3.308,1.113,6.124,3.34,8.446
		c2.258,2.289,4.946,3.436,8.064,3.436c2.45,0,4.612-0.605,6.49-1.814v1.336h6.633V29.836H123.375z M84.581,44.486
		c-1.145-1.209-1.718-2.497-1.718-3.864c0-1.782,0.549-3.237,1.646-4.367c1.098-1.128,2.521-1.694,4.271-1.694
		c2.29,0,4.087,0.907,5.392,2.721v6.155c-1.273,1.845-3.07,2.768-5.392,2.768C87.126,46.204,85.726,45.631,84.581,44.486
		 M94.172,29.836v0.907c-1.877-1.209-4.04-1.813-6.49-1.813c-3.181,0-5.885,1.097-8.112,3.292c-2.195,2.195-3.292,4.995-3.292,8.399
		c0,2.989,1.113,5.599,3.34,7.824c2.226,2.227,4.915,3.34,8.064,3.34c2.45,0,4.613-0.604,6.49-1.813v2.482
		c0,1.684-0.485,3.02-1.455,4.008c-0.971,0.984-2.236,1.479-3.794,1.479c-1.527,0-2.76-0.35-3.698-1.051
		c-0.939-0.699-1.487-1.67-1.646-2.91h-6.681c0.254,2.928,1.495,5.297,3.722,7.109c2.227,1.846,4.994,2.768,8.303,2.768
		c3.531,0,6.378-1.033,8.542-3.102c2.195-2.035,3.292-4.818,3.292-8.35V29.836H94.172z M55.044,45.726
		c-1.114-1.271-1.67-2.751-1.67-4.437c0-1.719,0.556-3.213,1.67-4.486c1.113-1.241,2.529-1.86,4.247-1.86
		c2.29,0,4.087,0.891,5.392,2.671v7.302c-1.336,1.75-3.134,2.625-5.392,2.625C57.573,47.541,56.157,46.936,55.044,45.726
		 M64.683,29.836v1.336c-1.878-1.208-4.04-1.813-6.49-1.813c-3.149,0-5.838,1.162-8.064,3.483c-2.227,2.26-3.34,5.075-3.34,8.447
		c0,3.308,1.113,6.124,3.34,8.446c2.258,2.289,4.946,3.436,8.064,3.436c2.45,0,4.612-0.605,6.49-1.814v1.336h6.633V29.836H64.683z
		 M27.726,29.884c-1.288,0.509-2.553,1.336-3.794,2.48c-1.877-2.162-4.311-3.244-7.3-3.244c-2.26,0-4.136,0.701-5.631,2.1v-1.384
		H4.368v22.856h6.633V37.71c1.304-1.719,2.656-2.577,4.056-2.577c1.59,0,2.807,0.478,3.65,1.431
		c0.843,0.955,1.265,2.339,1.265,4.152v11.976h6.633V40.143c0-0.668-0.064-1.495-0.191-2.48c1.208-1.687,2.64-2.529,4.294-2.529
		c1.559,0,2.76,0.478,3.603,1.431c0.843,0.955,1.265,2.339,1.265,4.152v11.976h6.632V40.143c0-3.276-0.954-5.932-2.863-7.969
		c-1.908-2.035-4.279-3.054-7.11-3.054C30.518,29.121,29.014,29.376,27.726,29.884"/>
</g>
<g>
</g>
<g>
</g>
<g>
</g>
<g>
</g>
<g>
</g>
<g>
</g>
</svg>
